<?xml version="1.0" encoding="UTF-8" standalone="no"?><!DOCTYPE svg PUBLIC "-//W3C//DTD SVG 1.1//EN" "http://www.w3.org/Graphics/SVG/1.1/DTD/svg11.dtd"><svg width="100%" height="100%" viewBox="0 0 8428 2637" version="1.1" xmlns="http://www.w3.org/2000/svg" xmlns:xlink="http://www.w3.org/1999/xlink" xml:space="preserve" xmlns:serif="http://www.serif.com/" style="fill-rule:evenodd;clip-rule:evenodd;stroke-miterlimit:1.5;"><g><path d="M693.309,1158.84l-369.094,0l-184.547,-319.645l184.547,-319.645l369.094,0l184.548,319.645l-184.548,319.645Z" style="fill:url(#_Linear1);stroke:#231f20;stroke-width:32.55px;"/><path d="M1246.95,839.195l-369.094,0l-184.548,-319.645l184.548,-319.645l369.094,0l184.547,319.645l-184.547,319.645Z" style="fill:url(#_Linear2);stroke:#231f20;stroke-width:32.55px;"/><path d="M1796.94,1165.17l-369.095,0l-184.547,-319.646l184.547,-319.645l369.095,0l184.547,319.645l-184.547,319.646Z" style="fill:url(#_Linear3);stroke:#231f20;stroke-width:32.55px;"/><path d="M1796.94,1804.46l-369.095,0l-184.547,-319.645l184.547,-319.645l369.095,0l184.547,319.645l-184.547,319.645Z" style="fill:url(#_Linear4);stroke:#231f20;stroke-width:32.55px;"/><path d="M1792.71,2436.44l-369.094,0l-184.547,-319.646l184.547,-319.645l369.094,0l184.548,319.645l-184.548,319.646Z" style="fill:url(#_Linear5);stroke:#231f20;stroke-width:32.55px;"/><path d="M1239.64,2117.78l-369.094,0l-184.548,-319.645l184.548,-319.646l369.094,0l184.547,319.646l-184.547,319.645Z" style="fill:url(#_Linear6);stroke:#231f20;stroke-width:32.55px;"/><path d="M685.997,1798.13l-369.094,0l-184.547,-319.646l184.547,-319.645l369.094,0l184.548,319.645l-184.548,319.646Z" style="fill:url(#_Linear7);stroke:#231f20;stroke-width:32.55px;"/><g><path d="M1468.65,1873.29l287.481,0" style="fill:none;stroke:#231f20;stroke-width:32.55px;stroke-linecap:round;"/><path d="M1899.87,2124.11l-143.741,250.819" style="fill:none;stroke:#231f20;stroke-width:32.55px;stroke-linecap:round;"/><path d="M1468.65,2374.93l-143.741,-250.819" style="fill:none;stroke:#231f20;stroke-width:32.55px;stroke-linecap:round;"/></g><g><path d="M1468.65,1234l287.481,0" style="fill:none;stroke:#231f20;stroke-width:32.55px;stroke-linecap:round;"/><path d="M1899.87,1484.82l-143.741,250.819" style="fill:none;stroke:#231f20;stroke-width:32.55px;stroke-linecap:round;"/><path d="M1468.65,1735.64l-143.741,-250.819" style="fill:none;stroke:#231f20;stroke-width:32.55px;stroke-linecap:round;"/></g><g><path d="M1468.65,594.708l287.481,0" style="fill:none;stroke:#231f20;stroke-width:32.55px;stroke-linecap:round;"/><path d="M1899.87,845.527l-143.741,250.82" style="fill:none;stroke:#231f20;stroke-width:32.55px;stroke-linecap:round;"/><path d="M1468.65,1096.35l-143.741,-250.82" style="fill:none;stroke:#231f20;stroke-width:32.55px;stroke-linecap:round;"/></g><g><path d="M920.714,275.99l289.086,0.926" style="fill:none;stroke:#231f20;stroke-width:32.55px;stroke-linecap:round;"/></g><g><path d="M363.951,588.376l289.087,0.926" style="fill:none;stroke:#231f20;stroke-width:32.55px;stroke-linecap:round;"/></g><g><path d="M220.211,839.195l143.74,250.819" style="fill:none;stroke:#231f20;stroke-width:32.55px;stroke-linecap:round;"/></g><g><path d="M223.867,1484.82l143.74,250.819" style="fill:none;stroke:#231f20;stroke-width:32.55px;stroke-linecap:round;"/></g><g><path d="M1202.49,1420.39l-289.086,0.927" style="fill:none;stroke:#231f20;stroke-width:32.55px;stroke-linecap:round;"/><path d="M769.662,1172.35l145.345,-249.892" style="fill:none;stroke:#231f20;stroke-width:32.55px;stroke-linecap:round;"/></g><g><path d="M1202.49,2053.43l-289.086,0.926" style="fill:none;stroke:#231f20;stroke-width:32.55px;stroke-linecap:round;"/><path d="M769.662,1805.39l145.345,-249.893" style="fill:none;stroke:#231f20;stroke-width:32.55px;stroke-linecap:round;"/></g><path d="M2907.17,1003.36c54.891,0 96.562,-13.388 125.011,-40.164c28.45,-26.776 42.675,-66.271 42.675,-118.485c0,-51.544 -14.225,-90.871 -42.675,-117.982c-28.449,-27.111 -70.12,-40.666 -125.011,-40.666l-191.784,0l0,317.297l191.784,0Zm12.05,655.681c70.287,0 123.002,-16.4 158.146,-49.201c35.144,-32.801 52.716,-82.337 52.716,-148.608c0,-64.932 -17.572,-113.631 -52.716,-146.097c-35.144,-32.466 -87.859,-48.699 -158.146,-48.699l-203.834,0l0,392.605l203.834,0Zm323.322,-539.205c74.973,24.099 132.876,68.614 173.71,133.546c40.833,64.932 61.25,144.591 61.25,238.977c0,144.592 -44.013,252.366 -132.04,323.322c-88.026,70.957 -221.74,106.436 -401.14,106.436l-577.361,0l0,-1499.13l522.135,0c187.433,0 323.155,31.462 407.165,94.386c84.01,62.924 126.015,163.669 126.015,302.236c0,72.965 -15.228,135.052 -45.686,186.261c-30.458,51.21 -75.141,89.198 -134.048,113.966Z" style="fill:url(#_Linear8);fill-rule:nonzero;"/><rect x="3762.67" y="359.727" width="323.322" height="1562.39" style="fill:url(#_Linear9);fill-rule:nonzero;"/><path d="M5406.39,1356.8l0,102.419l-756.091,0c7.363,84.345 34.641,147.603 81.834,189.776c47.193,42.172 112.962,63.259 197.307,63.259c68.279,0 138.065,-11.213 209.356,-33.638c71.292,-22.425 144.424,-56.397 219.397,-101.917l0,277.133c-76.312,32.132 -152.791,56.398 -229.438,72.798c-76.647,16.4 -153.126,24.601 -229.438,24.601c-183.417,0 -325.832,-51.712 -427.247,-155.135c-101.415,-103.423 -152.122,-248.516 -152.122,-435.279c0,-183.417 49.87,-327.674 149.612,-432.77c99.741,-105.096 236.969,-157.645 411.683,-157.645c159.318,0 286.672,53.218 382.062,159.653c95.39,106.435 143.085,248.684 143.085,426.745Zm-332.359,-119.488c0,-68.28 -17.906,-123.338 -53.719,-165.176c-35.813,-41.838 -82.839,-62.756 -141.077,-62.756c-62.255,0 -112.962,19.58 -152.122,58.74c-39.16,39.16 -63.761,95.557 -73.802,169.192l420.72,0Z" style="fill:url(#_Linear10);fill-rule:nonzero;"/><path d="M6668.55,1237.32l0,684.8l-325.33,0l0,-111.456l0,-412.688c0,-97.063 -2.008,-164.003 -6.025,-200.821c-4.016,-36.817 -10.71,-63.928 -20.082,-81.332c-12.719,-23.429 -29.956,-41.671 -51.711,-54.724c-21.756,-13.053 -46.357,-19.58 -73.802,-19.58c-67.61,0 -120.66,28.952 -159.151,86.855c-38.491,57.904 -57.736,138.065 -57.736,240.483l0,553.263l-323.322,0l0,-1124.6l323.322,0l0,164.674c48.867,-65.602 100.745,-113.966 155.636,-145.094c54.892,-31.127 115.473,-46.691 181.744,-46.691c116.476,0 205.004,39.83 265.586,119.489c60.581,79.659 90.871,195.466 90.871,347.421Z" style="fill:url(#_Linear11);fill-rule:nonzero;"/><path d="M7657.6,962.191l0,-602.464l325.33,0l0,1562.39l-325.33,0l0,-162.666c-44.85,66.271 -94.051,114.803 -147.603,145.596c-53.553,30.792 -115.807,46.189 -186.764,46.189c-124.509,0 -226.761,-55.059 -306.754,-165.176c-79.994,-110.117 -119.991,-251.863 -119.991,-425.238c0,-173.376 39.997,-315.122 119.991,-425.239c79.993,-110.117 182.245,-165.176 306.754,-165.176c70.287,0 132.375,15.564 186.262,46.691c53.887,31.128 103.255,79.492 148.105,145.094Zm-213.874,727.976c69.618,0 122.668,-28.115 159.15,-84.345c36.483,-56.23 54.724,-137.897 54.724,-245.001c0,-107.105 -18.241,-188.772 -54.724,-245.002c-36.482,-56.23 -89.532,-84.345 -159.15,-84.345c-68.28,0 -120.66,28.115 -157.143,84.345c-36.482,56.23 -54.724,137.897 -54.724,245.002c0,107.104 18.242,188.771 54.724,245.001c36.483,56.23 88.863,84.345 157.143,84.345Z" style="fill:url(#_Linear12);fill-rule:nonzero;"/></g><defs><linearGradient id="_Linear1" x1="0" y1="0" x2="1" y2="0" gradientUnits="userSpaceOnUse" gradientTransform="matrix(-369.094,-639.29,553.642,-319.645,693.309,1158.84)"><stop offset="0" style="stop-color:#767cbc;stop-opacity:1"/><stop offset="1" style="stop-color:#a7beff;stop-opacity:1"/></linearGradient><linearGradient id="_Linear2" x1="0" y1="0" x2="1" y2="0" gradientUnits="userSpaceOnUse" gradientTransform="matrix(-369.094,-639.29,553.642,-319.645,1246.95,839.195)"><stop offset="0" style="stop-color:#c7b1d6;stop-opacity:1"/><stop offset="1" style="stop-color:#b2dcfb;stop-opacity:1"/></linearGradient><linearGradient id="_Linear3" x1="0" y1="0" x2="1" y2="0" gradientUnits="userSpaceOnUse" gradientTransform="matrix(-369.094,-639.29,553.642,-319.645,1796.94,1165.17)"><stop offset="0" style="stop-color:#f597a8;stop-opacity:1"/><stop offset="1" style="stop-color:#ceb2fb;stop-opacity:1"/></linearGradient><linearGradient id="_Linear4" x1="0" y1="0" x2="1" y2="0" gradientUnits="userSpaceOnUse" gradientTransform="matrix(-369.094,-639.29,553.642,-319.645,1796.94,1804.46)"><stop offset="0" style="stop-color:#eeb8d5;stop-opacity:1"/><stop offset="1" style="stop-color:#ff9aaa;stop-opacity:1"/></linearGradient><linearGradient id="_Linear5" x1="0" y1="0" x2="1" y2="0" gradientUnits="userSpaceOnUse" gradientTransform="matrix(-369.094,-639.29,553.642,-319.645,1792.71,2436.44)"><stop offset="0" style="stop-color:#fff;stop-opacity:1"/><stop offset="1" style="stop-color:#ff6cd2;stop-opacity:0.49"/></linearGradient><linearGradient id="_Linear6" x1="0" y1="0" x2="1" y2="0" gradientUnits="userSpaceOnUse" gradientTransform="matrix(-369.094,-639.29,553.642,-319.645,1239.64,2117.78)"><stop offset="0" style="stop-color:#f1b0ca;stop-opacity:1"/><stop offset="1" style="stop-color:#937dcf;stop-opacity:1"/></linearGradient><linearGradient id="_Linear7" x1="0" y1="0" x2="1" y2="0" gradientUnits="userSpaceOnUse" gradientTransform="matrix(-369.094,-639.29,553.642,-319.645,685.997,1798.13)"><stop offset="0" style="stop-color:#937cb9;stop-opacity:1"/><stop offset="1" style="stop-color:#747dbc;stop-opacity:1"/></linearGradient><linearGradient id="_Linear8" x1="0" y1="0" x2="1" y2="0" gradientUnits="userSpaceOnUse" gradientTransform="matrix(5940.29,0,0,2393.79,2197.27,1210.2)"><stop offset="0" style="stop-color:#dea5bf;stop-opacity:1"/><stop offset="1" style="stop-color:#9cadd0;stop-opacity:1"/></linearGradient><linearGradient id="_Linear9" x1="0" y1="0" x2="1" y2="0" gradientUnits="userSpaceOnUse" gradientTransform="matrix(5940.29,0,0,2393.79,2197.27,1210.2)"><stop offset="0" style="stop-color:#dea5bf;stop-opacity:1"/><stop offset="1" style="stop-color:#9cadd0;stop-opacity:1"/></linearGradient><linearGradient id="_Linear10" x1="0" y1="0" x2="1" y2="0" gradientUnits="userSpaceOnUse" gradientTransform="matrix(5940.29,0,0,2393.79,2197.27,1210.2)"><stop offset="0" style="stop-color:#dea5bf;stop-opacity:1"/><stop offset="1" style="stop-color:#9cadd0;stop-opacity:1"/></linearGradient><linearGradient id="_Linear11" x1="0" y1="0" x2="1" y2="0" gradientUnits="userSpaceOnUse" gradientTransform="matrix(5940.29,0,0,2393.79,2197.27,1210.2)"><stop offset="0" style="stop-color:#dea5bf;stop-opacity:1"/><stop offset="1" style="stop-color:#9cadd0;stop-opacity:1"/></linearGradient><linearGradient id="_Linear12" x1="0" y1="0" x2="1" y2="0" gradientUnits="userSpaceOnUse" gradientTransform="matrix(5940.29,0,0,2393.79,2197.27,1210.2)"><stop offset="0" style="stop-color:#dea5bf;stop-opacity:1"/><stop offset="1" style="stop-color:#9cadd0;stop-opacity:1"/></linearGradient></defs></svg>