<?xml version="1.0" encoding="UTF-8" standalone="no"?>
<!DOCTYPE svg PUBLIC "-//W3C//DTD SVG 1.1//EN" "http://www.w3.org/Graphics/SVG/1.1/DTD/svg11.dtd">
<svg width="100%" height="100%" viewBox="0 0 2697 844" version="1.1" xmlns="http://www.w3.org/2000/svg" xmlns:xlink="http://www.w3.org/1999/xlink" xml:space="preserve" xmlns:serif="http://www.serif.com/" style="fill-rule:evenodd;clip-rule:evenodd;stroke-miterlimit:1.5;">
    <g transform="matrix(1,0,0,1,-1549.79,-549.749)">
        <g transform="matrix(-0.5,-0.866025,0.866025,-0.5,1860.24,2710.59)">
            <path d="M1594.49,818.292L1653.54,716.005L1771.65,716.005L1830.71,818.292L1771.65,920.578L1653.54,920.578L1594.49,818.292Z" style="fill:url(#_Linear1);stroke:rgb(35,31,32);stroke-width:10.42px;"/>
        </g>
        <g transform="matrix(-0.5,-0.866025,0.866025,-0.5,2037.4,2608.3)">
            <path d="M1594.49,818.292L1653.54,716.005L1771.65,716.005L1830.71,818.292L1771.65,920.578L1653.54,920.578L1594.49,818.292Z" style="fill:url(#_Linear2);stroke:rgb(35,31,32);stroke-width:10.42px;"/>
        </g>
        <g transform="matrix(-0.5,-0.866025,0.866025,-0.5,2213.4,2712.62)">
            <path d="M1594.49,818.292L1653.54,716.005L1771.65,716.005L1830.71,818.292L1771.65,920.578L1653.54,920.578L1594.49,818.292Z" style="fill:url(#_Linear3);stroke:rgb(35,31,32);stroke-width:10.42px;"/>
        </g>
        <g transform="matrix(-0.5,-0.866025,0.866025,-0.5,2213.4,2917.19)">
            <path d="M1594.49,818.292L1653.54,716.005L1771.65,716.005L1830.71,818.292L1771.65,920.578L1653.54,920.578L1594.49,818.292Z" style="fill:url(#_Linear4);stroke:rgb(35,31,32);stroke-width:10.42px;"/>
        </g>
        <g transform="matrix(-0.5,-0.866025,0.866025,-0.5,2212.05,3119.42)">
            <path d="M1594.49,818.292L1653.54,716.005L1771.65,716.005L1830.71,818.292L1771.65,920.578L1653.54,920.578L1594.49,818.292Z" style="fill:url(#_Linear5);stroke:rgb(35,31,32);stroke-width:10.42px;"/>
        </g>
        <g transform="matrix(-0.5,-0.866025,0.866025,-0.5,2035.06,3017.45)">
            <path d="M1594.49,818.292L1653.54,716.005L1771.65,716.005L1830.71,818.292L1771.65,920.578L1653.54,920.578L1594.49,818.292Z" style="fill:url(#_Linear6);stroke:rgb(35,31,32);stroke-width:10.42px;"/>
        </g>
        <g transform="matrix(-0.5,-0.866025,0.866025,-0.5,1857.9,2915.16)">
            <path d="M1594.49,818.292L1653.54,716.005L1771.65,716.005L1830.71,818.292L1771.65,920.578L1653.54,920.578L1594.49,818.292Z" style="fill:url(#_Linear7);stroke:rgb(35,31,32);stroke-width:10.42px;"/>
        </g>
        <g transform="matrix(0.941299,0,0,0.941299,120.161,74.0782)">
            <g transform="matrix(0.827454,0,0,0.833614,649.832,545.298)">
                <path d="M1653.54,716.005L1771.65,716.005" style="fill:none;stroke:rgb(35,31,32);stroke-width:13.32px;stroke-linecap:round;"/>
            </g>
            <g transform="matrix(0.827454,0,0,0.833614,649.832,545.298)">
                <path d="M1830.71,818.292L1771.65,920.578" style="fill:none;stroke:rgb(35,31,32);stroke-width:13.32px;stroke-linecap:round;"/>
            </g>
            <g transform="matrix(0.827454,0,0,0.833614,649.832,545.298)">
                <path d="M1653.54,920.578L1594.49,818.292" style="fill:none;stroke:rgb(35,31,32);stroke-width:13.32px;stroke-linecap:round;"/>
            </g>
        </g>
        <g transform="matrix(0.941299,0,0,0.941299,120.161,-130.495)">
            <g transform="matrix(0.827454,0,0,0.833614,649.832,545.298)">
                <path d="M1653.54,716.005L1771.65,716.005" style="fill:none;stroke:rgb(35,31,32);stroke-width:13.32px;stroke-linecap:round;"/>
            </g>
            <g transform="matrix(0.827454,0,0,0.833614,649.832,545.298)">
                <path d="M1830.71,818.292L1771.65,920.578" style="fill:none;stroke:rgb(35,31,32);stroke-width:13.32px;stroke-linecap:round;"/>
            </g>
            <g transform="matrix(0.827454,0,0,0.833614,649.832,545.298)">
                <path d="M1653.54,920.578L1594.49,818.292" style="fill:none;stroke:rgb(35,31,32);stroke-width:13.32px;stroke-linecap:round;"/>
            </g>
        </g>
        <g transform="matrix(0.941299,0,0,0.941299,120.161,-335.068)">
            <g transform="matrix(0.827454,0,0,0.833614,649.832,545.298)">
                <path d="M1653.54,716.005L1771.65,716.005" style="fill:none;stroke:rgb(35,31,32);stroke-width:13.32px;stroke-linecap:round;"/>
            </g>
            <g transform="matrix(0.827454,0,0,0.833614,649.832,545.298)">
                <path d="M1830.71,818.292L1771.65,920.578" style="fill:none;stroke:rgb(35,31,32);stroke-width:13.32px;stroke-linecap:round;"/>
            </g>
            <g transform="matrix(0.827454,0,0,0.833614,649.832,545.298)">
                <path d="M1653.54,920.578L1594.49,818.292" style="fill:none;stroke:rgb(35,31,32);stroke-width:13.32px;stroke-linecap:round;"/>
            </g>
        </g>
        <g transform="matrix(-0.389441,0.674532,-0.679553,-0.39234,3113.96,-116.122)">
            <path d="M1653.54,920.578L1594.49,818.292" style="fill:none;stroke:rgb(35,31,32);stroke-width:13.32px;stroke-linecap:round;"/>
        </g>
        <g transform="matrix(-0.389441,0.674532,-0.679553,-0.39234,2935.8,-16.158)">
            <path d="M1653.54,920.578L1594.49,818.292" style="fill:none;stroke:rgb(35,31,32);stroke-width:13.32px;stroke-linecap:round;"/>
        </g>
        <g transform="matrix(-0.778882,1.37799e-16,-1.38825e-16,-0.78468,2908.18,1540.65)">
            <path d="M1653.54,920.578L1594.49,818.292" style="fill:none;stroke:rgb(35,31,32);stroke-width:13.32px;stroke-linecap:round;"/>
        </g>
        <g transform="matrix(-0.778882,1.37799e-16,-1.38825e-16,-0.78468,2909.35,1747.25)">
            <path d="M1653.54,920.578L1594.49,818.292" style="fill:none;stroke:rgb(35,31,32);stroke-width:13.32px;stroke-linecap:round;"/>
        </g>
        <g transform="matrix(0.470649,0.815189,-0.815189,0.470649,1916.39,-1338.03)">
            <g transform="matrix(0.827454,0,0,0.833614,649.832,545.298)">
                <path d="M1830.71,818.292L1771.65,920.578" style="fill:none;stroke:rgb(35,31,32);stroke-width:13.32px;stroke-linecap:round;"/>
            </g>
            <g transform="matrix(0.827454,0,0,0.833614,649.832,545.298)">
                <path d="M1653.54,920.578L1594.49,818.292" style="fill:none;stroke:rgb(35,31,32);stroke-width:13.32px;stroke-linecap:round;"/>
            </g>
        </g>
        <g transform="matrix(0.470649,0.815189,-0.815189,0.470649,1916.39,-1135.45)">
            <g transform="matrix(0.827454,0,0,0.833614,649.832,545.298)">
                <path d="M1830.71,818.292L1771.65,920.578" style="fill:none;stroke:rgb(35,31,32);stroke-width:13.32px;stroke-linecap:round;"/>
            </g>
            <g transform="matrix(0.827454,0,0,0.833614,649.832,545.298)">
                <path d="M1653.54,920.578L1594.49,818.292" style="fill:none;stroke:rgb(35,31,32);stroke-width:13.32px;stroke-linecap:round;"/>
            </g>
        </g>
        <g transform="matrix(1.09675,0,0,1.09675,-491.204,131.128)">
            <text x="2502.05px" y="942.509px" style="font-family:'DejaVuLGCSansCondensed-Bold', 'DejaVu LGC Sans Condensed', sans-serif;font-weight:700;font-size:600px;fill:url(#_Linear8);">Blend</text>
        </g>
    </g>
    <defs>
        <linearGradient id="_Linear1" x1="0" y1="0" x2="1" y2="0" gradientUnits="userSpaceOnUse" gradientTransform="matrix(236.22,0,0,204.573,1594.49,818.292)"><stop offset="0" style="stop-color:rgb(118,124,188);stop-opacity:1"/><stop offset="1" style="stop-color:rgb(167,190,255);stop-opacity:1"/></linearGradient>
        <linearGradient id="_Linear2" x1="0" y1="0" x2="1" y2="0" gradientUnits="userSpaceOnUse" gradientTransform="matrix(236.22,0,0,204.573,1594.49,818.292)"><stop offset="0" style="stop-color:rgb(199,177,214);stop-opacity:1"/><stop offset="1" style="stop-color:rgb(178,220,251);stop-opacity:1"/></linearGradient>
        <linearGradient id="_Linear3" x1="0" y1="0" x2="1" y2="0" gradientUnits="userSpaceOnUse" gradientTransform="matrix(236.22,0,0,204.573,1594.49,818.292)"><stop offset="0" style="stop-color:rgb(245,151,168);stop-opacity:1"/><stop offset="1" style="stop-color:rgb(206,178,251);stop-opacity:1"/></linearGradient>
        <linearGradient id="_Linear4" x1="0" y1="0" x2="1" y2="0" gradientUnits="userSpaceOnUse" gradientTransform="matrix(236.22,0,0,204.573,1594.49,818.292)"><stop offset="0" style="stop-color:rgb(238,184,213);stop-opacity:1"/><stop offset="1" style="stop-color:rgb(255,154,170);stop-opacity:1"/></linearGradient>
        <linearGradient id="_Linear5" x1="0" y1="0" x2="1" y2="0" gradientUnits="userSpaceOnUse" gradientTransform="matrix(236.22,0,0,204.573,1594.49,818.292)"><stop offset="0" style="stop-color:white;stop-opacity:1"/><stop offset="1" style="stop-color:rgb(255,108,210);stop-opacity:0.49"/></linearGradient>
        <linearGradient id="_Linear6" x1="0" y1="0" x2="1" y2="0" gradientUnits="userSpaceOnUse" gradientTransform="matrix(236.22,0,0,204.573,1594.49,818.292)"><stop offset="0" style="stop-color:rgb(241,176,202);stop-opacity:1"/><stop offset="1" style="stop-color:rgb(147,125,207);stop-opacity:1"/></linearGradient>
        <linearGradient id="_Linear7" x1="0" y1="0" x2="1" y2="0" gradientUnits="userSpaceOnUse" gradientTransform="matrix(236.22,0,0,204.573,1594.49,818.292)"><stop offset="0" style="stop-color:rgb(147,124,185);stop-opacity:1"/><stop offset="1" style="stop-color:rgb(116,125,188);stop-opacity:1"/></linearGradient>
        <linearGradient id="_Linear8" x1="0" y1="0" x2="1" y2="0" gradientUnits="userSpaceOnUse" gradientTransform="matrix(1733.2,0,0,698.438,2502.05,734.794)"><stop offset="0" style="stop-color:rgb(222,165,191);stop-opacity:1"/><stop offset="1" style="stop-color:rgb(156,173,208);stop-opacity:1"/></linearGradient>
    </defs>
</svg>
