<?xml version="1.0" encoding="UTF-8" standalone="no"?><!DOCTYPE svg PUBLIC "-//W3C//DTD SVG 1.1//EN" "http://www.w3.org/Graphics/SVG/1.1/DTD/svg11.dtd"><svg width="100%" height="100%" viewBox="0 0 2023 633" version="1.1" xmlns="http://www.w3.org/2000/svg" xmlns:xlink="http://www.w3.org/1999/xlink" xml:space="preserve" xmlns:serif="http://www.serif.com/" style="fill-rule:evenodd;clip-rule:evenodd;stroke-miterlimit:1.5;"><g><path d="M166.394,278.122l-88.582,0l-44.292,-76.715l44.292,-76.715l88.582,0l44.292,76.715l-44.292,76.715Z" style="fill:url(#_Linear1);stroke:#231f20;stroke-width:7.81px;"/><path d="M299.268,201.407l-88.582,0l-44.292,-76.715l44.292,-76.715l88.582,0l44.292,76.715l-44.292,76.715Z" style="fill:url(#_Linear2);stroke:#231f20;stroke-width:7.81px;"/><path d="M431.265,279.641l-88.583,0l-44.291,-76.714l44.291,-76.715l88.583,0l44.291,76.715l-44.291,76.714Z" style="fill:url(#_Linear3);stroke:#231f20;stroke-width:7.81px;"/><path d="M431.265,433.071l-88.583,0l-44.291,-76.715l44.291,-76.715l88.583,0l44.291,76.715l-44.291,76.715Z" style="fill:url(#_Linear4);stroke:#231f20;stroke-width:7.81px;"/><path d="M430.251,584.745l-88.583,0l-44.291,-76.715l44.291,-76.715l88.583,0l44.291,76.715l-44.291,76.715Z" style="fill:url(#_Linear5);stroke:#231f20;stroke-width:7.81px;"/><path d="M297.513,508.266l-88.582,0l-44.292,-76.715l44.292,-76.715l88.582,0l44.292,76.715l-44.292,76.715Z" style="fill:url(#_Linear6);stroke:#231f20;stroke-width:7.81px;"/><path d="M164.639,431.551l-88.582,0l-44.292,-76.715l44.292,-76.714l88.582,0l44.292,76.714l-44.292,76.715Z" style="fill:url(#_Linear7);stroke:#231f20;stroke-width:7.81px;"/><g><path d="M352.476,449.589l68.995,0" style="fill:none;stroke:#231f20;stroke-width:7.81px;stroke-linecap:round;"/><path d="M455.969,509.786l-34.498,60.197" style="fill:none;stroke:#231f20;stroke-width:7.81px;stroke-linecap:round;"/><path d="M352.476,569.983l-34.498,-60.197" style="fill:none;stroke:#231f20;stroke-width:7.81px;stroke-linecap:round;"/></g><g><path d="M352.476,296.16l68.995,0" style="fill:none;stroke:#231f20;stroke-width:7.81px;stroke-linecap:round;"/><path d="M455.969,356.356l-34.498,60.197" style="fill:none;stroke:#231f20;stroke-width:7.81px;stroke-linecap:round;"/><path d="M352.476,416.553l-34.498,-60.197" style="fill:none;stroke:#231f20;stroke-width:7.81px;stroke-linecap:round;"/></g><g><path d="M352.476,142.73l68.995,0" style="fill:none;stroke:#231f20;stroke-width:7.81px;stroke-linecap:round;"/><path d="M455.969,202.927l-34.498,60.196" style="fill:none;stroke:#231f20;stroke-width:7.81px;stroke-linecap:round;"/><path d="M352.476,263.123l-34.498,-60.196" style="fill:none;stroke:#231f20;stroke-width:7.81px;stroke-linecap:round;"/></g><g><path d="M220.971,66.237l69.381,0.223" style="fill:none;stroke:#231f20;stroke-width:7.81px;stroke-linecap:round;"/></g><g><path d="M87.348,141.21l69.381,0.223" style="fill:none;stroke:#231f20;stroke-width:7.81px;stroke-linecap:round;"/></g><g><path d="M52.851,201.407l34.497,60.196" style="fill:none;stroke:#231f20;stroke-width:7.81px;stroke-linecap:round;"/></g><g><path d="M53.728,356.356l34.498,60.197" style="fill:none;stroke:#231f20;stroke-width:7.81px;stroke-linecap:round;"/></g><g><path d="M288.597,340.893l-69.38,0.223" style="fill:none;stroke:#231f20;stroke-width:7.81px;stroke-linecap:round;"/><path d="M184.719,281.364l34.883,-59.974" style="fill:none;stroke:#231f20;stroke-width:7.81px;stroke-linecap:round;"/></g><g><path d="M288.597,492.823l-69.38,0.222" style="fill:none;stroke:#231f20;stroke-width:7.81px;stroke-linecap:round;"/><path d="M184.719,433.293l34.883,-59.974" style="fill:none;stroke:#231f20;stroke-width:7.81px;stroke-linecap:round;"/></g><text x="527.344px" y="461.308px" style="font-family:'DejaVuLGCSansCondensed-Bold', 'DejaVu LGC Sans Condensed', sans-serif;font-weight:700;font-size:493.538px;fill:url(#_Linear8);">Blend</text></g><defs><linearGradient id="_Linear1" x1="0" y1="0" x2="1" y2="0" gradientUnits="userSpaceOnUse" gradientTransform="matrix(-88.5827,-153.43,132.874,-76.7148,166.394,278.122)"><stop offset="0" style="stop-color:#767cbc;stop-opacity:1"/><stop offset="1" style="stop-color:#a7beff;stop-opacity:1"/></linearGradient><linearGradient id="_Linear2" x1="0" y1="0" x2="1" y2="0" gradientUnits="userSpaceOnUse" gradientTransform="matrix(-88.5827,-153.43,132.874,-76.7148,299.268,201.407)"><stop offset="0" style="stop-color:#c7b1d6;stop-opacity:1"/><stop offset="1" style="stop-color:#b2dcfb;stop-opacity:1"/></linearGradient><linearGradient id="_Linear3" x1="0" y1="0" x2="1" y2="0" gradientUnits="userSpaceOnUse" gradientTransform="matrix(-88.5827,-153.43,132.874,-76.7148,431.265,279.641)"><stop offset="0" style="stop-color:#f597a8;stop-opacity:1"/><stop offset="1" style="stop-color:#ceb2fb;stop-opacity:1"/></linearGradient><linearGradient id="_Linear4" x1="0" y1="0" x2="1" y2="0" gradientUnits="userSpaceOnUse" gradientTransform="matrix(-88.5827,-153.43,132.874,-76.7148,431.265,433.071)"><stop offset="0" style="stop-color:#eeb8d5;stop-opacity:1"/><stop offset="1" style="stop-color:#ff9aaa;stop-opacity:1"/></linearGradient><linearGradient id="_Linear5" x1="0" y1="0" x2="1" y2="0" gradientUnits="userSpaceOnUse" gradientTransform="matrix(-88.5827,-153.43,132.874,-76.7148,430.251,584.745)"><stop offset="0" style="stop-color:#fff;stop-opacity:1"/><stop offset="1" style="stop-color:#ff6cd2;stop-opacity:0.49"/></linearGradient><linearGradient id="_Linear6" x1="0" y1="0" x2="1" y2="0" gradientUnits="userSpaceOnUse" gradientTransform="matrix(-88.5827,-153.43,132.874,-76.7148,297.513,508.266)"><stop offset="0" style="stop-color:#f1b0ca;stop-opacity:1"/><stop offset="1" style="stop-color:#937dcf;stop-opacity:1"/></linearGradient><linearGradient id="_Linear7" x1="0" y1="0" x2="1" y2="0" gradientUnits="userSpaceOnUse" gradientTransform="matrix(-88.5827,-153.43,132.874,-76.7148,164.639,431.551)"><stop offset="0" style="stop-color:#937cb9;stop-opacity:1"/><stop offset="1" style="stop-color:#747dbc;stop-opacity:1"/></linearGradient><linearGradient id="_Linear8" x1="0" y1="0" x2="1" y2="0" gradientUnits="userSpaceOnUse" gradientTransform="matrix(1425.67,0,0,574.509,527.344,290.449)"><stop offset="0" style="stop-color:#dea5bf;stop-opacity:1"/><stop offset="1" style="stop-color:#9cadd0;stop-opacity:1"/></linearGradient></defs></svg>